<svg xmlns="http://www.w3.org/2000/svg" xmlns:xlink="http://www.w3.org/1999/xlink" width="1080" zoomAndPan="magnify" viewBox="0 0 810 809.999993" height="1080" preserveAspectRatio="xMidYMid meet" version="1.0"><defs><g/></defs><g fill="#ffffff" fill-opacity="1"><g transform="translate(15.16193, 488.648566)"><g><path d="M 143.78125 -192.75 L 137.796875 -158.296875 L 93.390625 -158.296875 L 93.390625 0 L 46.40625 0 L 46.40625 -158.296875 L 0.5625 -158.296875 L 0.5625 -192.75 Z M 143.78125 -192.75 "/></g></g></g><g fill="#ffffff" fill-opacity="1"><g transform="translate(159.501093, 488.648566)"><g><path d="M 205.5625 -142.921875 C 206.132812 -139.890625 206.800781 -134.957031 207.5625 -128.125 C 208.320312 -121.289062 208.703125 -114.171875 208.703125 -106.765625 C 208.703125 -87.023438 207.273438 -70.273438 204.421875 -56.515625 C 201.578125 -42.753906 197.117188 -31.554688 191.046875 -22.921875 C 184.972656 -14.285156 177.238281 -8.019531 167.84375 -4.125 C 158.445312 -0.238281 147.296875 1.703125 134.390625 1.703125 C 119.203125 1.703125 107.8125 -4.554688 100.21875 -17.078125 C 95.09375 -9.679688 89.160156 -4.703125 82.421875 -2.140625 C 75.679688 0.421875 67.566406 1.703125 58.078125 1.703125 C 50.109375 1.703125 43.367188 0.519531 37.859375 -1.84375 C 32.359375 -4.21875 27.898438 -7.632812 24.484375 -12.09375 C 21.066406 -16.5625 18.597656 -21.878906 17.078125 -28.046875 C 15.566406 -34.210938 14.8125 -41.1875 14.8125 -48.96875 L 14.8125 -142.921875 L 59.796875 -142.921875 L 59.796875 -50.109375 C 59.796875 -44.609375 60.742188 -39.910156 62.640625 -36.015625 C 64.535156 -32.128906 67.382812 -30.1875 71.1875 -30.1875 C 77.445312 -30.1875 82.046875 -34.597656 84.984375 -43.421875 C 87.929688 -52.242188 89.40625 -66.617188 89.40625 -86.546875 L 89.40625 -142.921875 L 134.390625 -142.921875 L 134.390625 -136.953125 C 134.390625 -132.960938 134.34375 -127.929688 134.25 -121.859375 C 134.15625 -115.785156 134.109375 -109.046875 134.109375 -101.640625 C 134.109375 -94.242188 134.054688 -87.128906 133.953125 -80.296875 C 133.859375 -73.460938 133.8125 -67.289062 133.8125 -61.78125 C 133.8125 -56.28125 133.8125 -52.390625 133.8125 -50.109375 C 133.8125 -44.609375 134.757812 -39.910156 136.65625 -36.015625 C 138.5625 -32.128906 141.410156 -30.1875 145.203125 -30.1875 C 149.378906 -30.1875 152.703125 -32.222656 155.171875 -36.296875 C 157.640625 -40.378906 159.488281 -45.835938 160.71875 -52.671875 C 161.957031 -59.503906 162.765625 -67.425781 163.140625 -76.4375 C 163.523438 -85.457031 163.71875 -94.804688 163.71875 -104.484375 C 163.71875 -114.171875 163.289062 -122.050781 162.4375 -128.125 C 161.582031 -134.195312 160.960938 -139.128906 160.578125 -142.921875 Z M 205.5625 -142.921875 "/></g></g></g><g fill="#ffffff" fill-opacity="1"><g transform="translate(378.999118, 488.648566)"><g><path d="M 50.96875 1.140625 C 40.144531 1.140625 31.410156 -1.65625 24.765625 -7.25 C 18.128906 -12.851562 14.8125 -20.78125 14.8125 -31.03125 L 14.8125 -142.921875 L 59.796875 -142.921875 L 59.796875 -43.84375 C 59.796875 -39.476562 60.457031 -36.535156 61.78125 -35.015625 C 63.113281 -33.503906 65.109375 -32.75 67.765625 -32.75 C 69.285156 -32.75 70.800781 -32.890625 72.3125 -33.171875 C 73.832031 -33.453125 74.785156 -33.6875 75.171875 -33.875 L 79.15625 -5.6875 C 78.957031 -5.5 78.097656 -5.070312 76.578125 -4.40625 C 75.066406 -3.75 73.078125 -2.992188 70.609375 -2.140625 C 68.140625 -1.285156 65.195312 -0.523438 61.78125 0.140625 C 58.363281 0.804688 54.757812 1.140625 50.96875 1.140625 Z M 37.875 -211.546875 C 45.84375 -211.546875 51.914062 -209.171875 56.09375 -204.421875 C 60.269531 -199.679688 62.359375 -193.703125 62.359375 -186.484375 C 62.359375 -179.085938 60.222656 -172.921875 55.953125 -167.984375 C 51.679688 -163.046875 45.273438 -160.578125 36.734375 -160.578125 C 28.753906 -160.578125 22.628906 -163 18.359375 -167.84375 C 14.085938 -172.6875 11.953125 -178.425781 11.953125 -185.0625 C 11.953125 -192.65625 14.132812 -198.96875 18.5 -204 C 22.875 -209.03125 29.332031 -211.546875 37.875 -211.546875 Z M 37.875 -211.546875 "/></g></g></g><g fill="#ffffff" fill-opacity="1"><g transform="translate(460.136541, 488.648566)"><g><path d="M 6.265625 0 L 6.265625 -25.0625 L 60.359375 -109.328125 C 56.753906 -109.140625 53.335938 -109 50.109375 -108.90625 C 46.878906 -108.8125 43.65625 -108.765625 40.4375 -108.765625 L 14.234375 -108.765625 L 8.546875 -141.796875 L 113.03125 -141.796875 L 113.03125 -114.171875 L 61.78125 -32.171875 C 64.25 -32.359375 66.671875 -32.5 69.046875 -32.59375 C 71.421875 -32.695312 73.9375 -32.75 76.59375 -32.75 L 115.59375 -32.75 L 115.59375 0 Z M 6.265625 0 "/></g></g></g><g fill="#ffffff" fill-opacity="1"><g transform="translate(580.561549, 488.648566)"><g><path d="M 6.265625 0 L 6.265625 -25.0625 L 60.359375 -109.328125 C 56.753906 -109.140625 53.335938 -109 50.109375 -108.90625 C 46.878906 -108.8125 43.65625 -108.765625 40.4375 -108.765625 L 14.234375 -108.765625 L 8.546875 -141.796875 L 113.03125 -141.796875 L 113.03125 -114.171875 L 61.78125 -32.171875 C 64.25 -32.359375 66.671875 -32.5 69.046875 -32.59375 C 71.421875 -32.695312 73.9375 -32.75 76.59375 -32.75 L 115.59375 -32.75 L 115.59375 0 Z M 6.265625 0 "/></g></g></g><g fill="#ff3131" fill-opacity="1"><g transform="translate(701.031064, 488.06476)"><g><path d="M 47.25 -56.234375 C 56.5625 -56.234375 63.710938 -53.457031 68.703125 -47.90625 C 73.691406 -42.363281 76.1875 -35.378906 76.1875 -26.953125 C 76.1875 -18.523438 73.691406 -11.367188 68.703125 -5.484375 C 63.710938 0.390625 56.335938 3.328125 46.578125 3.328125 C 37.265625 3.328125 30.054688 0.445312 24.953125 -5.3125 C 19.847656 -11.082031 17.296875 -17.851562 17.296875 -25.625 C 17.296875 -34.269531 19.847656 -41.53125 24.953125 -47.40625 C 30.054688 -53.289062 37.488281 -56.234375 47.25 -56.234375 Z M 47.25 -56.234375 "/></g></g></g></svg>